<svg xmlns="http://www.w3.org/2000/svg" width="41" height="41" fill="none" viewBox="0 0 41 41">
  <path fill="#352F36" d="M38.246 15.267h1.912v9.522h-1.912v-9.522Zm-1.899 9.522h1.9v3.81h-1.9v-3.81Zm0-13.333h1.9v3.811h-1.9v-3.81ZM34.448 28.6h1.899v3.798h-1.9V28.6Zm0-20.955h1.899v3.811h-1.9v-3.81Zm-1.912 24.753h1.912v1.912h-1.912v-1.912Z"/>
  <path fill="#352F36" d="M32.536 5.746h1.912v1.9h-1.912v-1.9ZM28.725 34.31h3.81v1.9h-3.81v-1.9Zm1.912-20.942h-1.912v-1.912h-5.71v1.912h-1.9v1.9h-1.911v-1.9h-1.9v-1.912h-5.71v1.912h-1.9v1.9h-1.91v5.71h1.912v1.911h1.899v1.9h1.9v1.899h1.911V28.6h1.9v1.899h1.899v1.9h1.911v-1.9h1.9v-1.9h1.911v-1.911h1.9v-1.9h1.899V22.89h1.912v-1.911h1.899v-5.71h-1.9v-1.9Zm-1.912 7.61h-1.9v-3.811h-3.81v-1.9h3.81v1.9h1.9v3.81Zm0-17.131h3.81v1.899h-3.81v-1.9ZM24.927 36.21h3.798v1.911h-3.799V36.21Zm0-34.275h3.798v1.912h-3.799V1.935Zm-9.522 36.186h9.521v1.9h-9.521v-1.9Zm0-38.085h9.521v1.899h-9.521v-1.9ZM11.594 36.21h3.811v1.911h-3.81V36.21Zm0-34.275h3.811v1.912h-3.81V1.935ZM7.783 34.31h3.811v1.9H7.783v-1.9Zm0-30.463h3.811v1.899H7.783v-1.9ZM5.884 32.398h1.9v1.912h-1.9v-1.912Zm0-26.652h1.9v1.9h-1.9v-1.9ZM3.972 28.6h1.911v3.798H3.972V28.6Zm0-20.955h1.911v3.811H3.972v-3.81ZM2.073 24.789h1.899v3.81h-1.9v-3.81Zm0-13.333h1.899v3.811h-1.9v-3.81Zm-1.9 3.811h1.9v9.522h-1.9v-9.522Z"/>
</svg>
