<svg xmlns="http://www.w3.org/2000/svg" width="46" height="41" fill="none" viewBox="0 0 46 41">
  <path fill="#352F36" d="M26.443 4.743h4.648v2.345h2.317V9.45h2.331v4.707h2.317V25.9h-2.317v4.707h-2.331v2.36H31.09v2.347h-4.648v2.345H14.83v2.361h16.26v-2.36h4.648v-2.346h2.317v-2.346h2.332v-2.361h2.316V25.9h2.317V14.156h-2.317V9.45h-2.316V7.09h-2.332V4.742h-2.317V2.397H31.09V.036H14.83v2.36h11.613v2.347Z"/>
  <path fill="#352F36" d="M33.408 14.155h2.332V25.9h-2.332V14.155ZM31.091 25.9h2.317v2.361H31.09V25.9Zm0-14.106h2.317v2.361H31.09v-2.36Z"/>
  <path fill="#352F36" d="M28.775 28.261h2.316v2.346h-2.316V28.26Zm0-18.811h2.316v2.346h-2.316V9.45Zm-2.332 21.157h2.332v2.36h-2.332v-2.36Zm0-23.519h2.332V9.45h-2.332V7.088ZM14.83 32.968h11.613v2.345H14.83v-2.345Zm9.297-11.759h2.316V25.9h-2.316v-4.69Zm0-7.054h2.316v2.346h-2.316v-2.346ZM14.83 4.742h11.613v2.346H14.83V4.742Zm4.648 23.52v2.346h2.316v-2.346h2.332v-2.361h-2.332v-4.692h2.332v-2.36h-2.332v-4.692h2.332v-2.361h-2.332V9.45h-2.316v2.346H17.16v2.361h2.317v4.691H17.16v2.361h2.317v4.692H17.16v2.361h2.317Z"/>
  <path fill="#352F36" d="M14.83 23.554h2.331V25.9H14.83v-2.346Zm0-9.399h2.331v4.692H14.83v-4.692Zm-4.633 21.158h4.633v2.346h-4.633v-2.346Zm2.316-4.706h2.317v2.36h-2.317v-2.36Zm0-23.519h2.317V9.45h-2.317V7.088Zm-2.316-4.691h4.633v2.345h-4.633V2.397Zm0 25.864h2.316v2.346h-2.316V28.26Zm0-18.811h2.316v2.346h-2.316V9.45ZM7.865 32.968h2.332v2.345H7.865v-2.345Zm0-7.068h2.332v2.361H7.865V25.9Zm0-14.106h2.332v2.361H7.865v-2.36Zm0-7.052h2.332v2.346H7.865V4.742ZM5.549 30.607h2.316v2.36H5.55v-2.36Zm0-16.452h2.316V25.9H5.55V14.155Zm0-7.067h2.316V9.45H5.55V7.088ZM3.217 25.9h2.331v4.707H3.217V25.9Zm0-16.45h2.331v4.707H3.217V9.45ZM.9 14.155h2.317V25.9H.9V14.155Z"/>
</svg>
