<svg xmlns="http://www.w3.org/2000/svg" width="37" height="39" fill="none" viewBox="0 0 37 39">
  <path stroke="#352F36" stroke-linecap="round" stroke-linejoin="round" stroke-width="2" d="m10.386 21.328 6.859 16.453c1.364 0 2.673-.578 3.637-1.606.965-1.029 1.507-2.423 1.507-3.878v-7.312h9.705a3.25 3.25 0 0 0 1.443-.32 3.454 3.454 0 0 0 1.184-.937c.326-.4.567-.871.706-1.38a3.89 3.89 0 0 0 .097-1.568L33.157 4.327a3.724 3.724 0 0 0-1.17-2.237 3.304 3.304 0 0 0-2.259-.87H10.386m0 20.108V1.22m0 20.11H5.808a3.815 3.815 0 0 1-2.65-1.018 4.308 4.308 0 0 1-1.345-2.639V4.876a4.308 4.308 0 0 1 1.345-2.639 3.816 3.816 0 0 1 2.65-1.018h4.578"/>
</svg>
