<svg xmlns="http://www.w3.org/2000/svg" width="36" height="39" fill="none" viewBox="0 0 36 39">
  <path fill="#352F36" d="M21.576 14.015V6.703c0-1.455-.541-2.85-1.506-3.878s-2.273-1.606-3.638-1.606L9.574 17.672V37.78h19.342c.826.01 1.63-.3 2.26-.87a3.724 3.724 0 0 0 1.169-2.238L34.71 18.22a3.89 3.89 0 0 0-.097-1.568 3.734 3.734 0 0 0-.706-1.38c-.326-.4-.73-.72-1.183-.936a3.25 3.25 0 0 0-1.443-.32h-9.706ZM9.574 37.781H4.995a3.815 3.815 0 0 1-2.65-1.018A4.308 4.308 0 0 1 1 34.124V21.328a4.308 4.308 0 0 1 1.345-2.639 3.815 3.815 0 0 1 2.65-1.017h4.579"/>
  <path stroke="#fff" stroke-linecap="round" stroke-linejoin="round" stroke-width="2" d="m9.574 17.672 6.858-16.453c1.365 0 2.673.578 3.638 1.606.965 1.029 1.506 2.423 1.506 3.878v7.312h9.706a3.25 3.25 0 0 1 1.443.32c.453.218.857.537 1.183.937.327.4.567.871.706 1.38a3.89 3.89 0 0 1 .097 1.568l-2.366 16.453a3.724 3.724 0 0 1-1.17 2.237 3.3 3.3 0 0 1-2.26.87H9.575m0-20.108V37.78m0-20.11h-4.58a3.815 3.815 0 0 0-2.65 1.018A4.308 4.308 0 0 0 1 21.328v12.796a4.308 4.308 0 0 0 1.345 2.639 3.815 3.815 0 0 0 2.65 1.018h4.579"/>
</svg>
