<svg xmlns="http://www.w3.org/2000/svg" width="36" height="39" fill="none" viewBox="0 0 36 39">
  <path stroke="#352F36" stroke-linecap="round" stroke-linejoin="round" stroke-width="2" d="m9.574 17.672 6.858-16.453c1.365 0 2.673.578 3.638 1.606.965 1.029 1.506 2.423 1.506 3.878v7.312h9.706a3.25 3.25 0 0 1 1.443.32c.453.218.857.537 1.183.937.327.4.567.871.706 1.38a3.89 3.89 0 0 1 .097 1.568l-2.366 16.453a3.724 3.724 0 0 1-1.17 2.237 3.3 3.3 0 0 1-2.26.87H9.575m0-20.108V37.78m0-20.11h-4.58a3.815 3.815 0 0 0-2.65 1.018A4.308 4.308 0 0 0 1 21.328v12.796a4.308 4.308 0 0 0 1.345 2.639 3.815 3.815 0 0 0 2.65 1.018h4.579"/>
</svg>
