<svg xmlns="http://www.w3.org/2000/svg" width="49" height="38" fill="none" viewBox="0 0 49 38">
  <path fill="#352F36" d="M46.124 23.685H43.83V21.35h-2.307v2.336h-2.292v2.321h-4.6v-2.32H32.34V21.35h-6.892v2.336h-4.6v2.321h-6.89v-2.32H11.65V21.35H4.758v2.336H2.466v2.321h2.292v6.978h2.307v-4.657h34.46v4.657h2.306v-4.657h2.293v-2.32h2.307v-6.979h-2.307v4.657Z"/>
  <path fill="#352F36" d="M39.232 32.984h2.292v2.337h-2.292v-2.337Zm0-25.59h2.292v2.32h-2.292v-2.32ZM36.94 5.072h2.292v2.32H36.94v-2.32ZM9.358 35.32h29.874v2.322H9.358V35.32ZM32.34 7.394h2.293v2.32H32.34v-2.32Z"/>
  <path fill="#352F36" d="M32.34 2.736h4.6v2.336h-4.6V2.735Zm-4.6 6.977h2.308v2.337h-2.307V9.713Zm0-4.641h2.308v2.32h-2.307v-2.32Zm-4.599 2.322h2.308v2.32H23.14v-2.32Zm-4.584 2.319h2.292v2.337h-2.292V9.713Zm0-4.641h2.292v2.32h-2.292v-2.32ZM16.25.414h16.09v2.321H16.25V.415Zm-2.293 6.98h2.293v2.32h-2.293v-2.32ZM11.65 2.736h4.6v2.336h-4.6V2.735ZM9.358 5.072h2.292v2.32H9.358v-2.32ZM7.065 32.984h2.292v2.337H7.065v-2.337Zm0-25.59h2.292v2.32H7.065v-2.32Z"/>
  <path fill="#352F36" d="M46.124 19.028V16.69H43.83V9.713h-2.307v6.978H7.065V9.713H4.758v6.978H2.466v2.337h43.658Zm-45.95 0h2.292v4.657H.174v-4.657Z"/>
</svg>
